<svg width="48" height="40" viewBox="0 0 48 40" fill="none" xmlns="http://www.w3.org/2000/svg">
<path d="M44.4 7.45H3.6C1.61484 7.45 0 9.06484 0 11.05V36.25C0 38.2352 1.61484 39.85 3.6 39.85H44.4C46.3852 39.85 48 38.2352 48 36.25V11.05C48 9.06484 46.3852 7.45 44.4 7.45ZM45.6 36.25C45.6 36.9116 45.0622 37.45 44.4 37.45H42V11.05H39.6V37.45H8.4V11.05H6V37.45H3.6C2.93784 37.45 2.4 36.9116 2.4 36.25V11.05C2.4 10.3884 2.93784 9.85 3.6 9.85H16.8V12.25H13.2V19.9469L23.5031 30.25H25.6968L31.2 24.7469V22.5532L20.8969 12.25H19.2V9.85H44.4C45.0622 9.85 45.6 10.3884 45.6 11.05V36.25ZM19.2 17.05V14.65H19.9031L28.8 23.5469V23.7532L24.7031 27.85H24.4968L15.6 18.9531V14.65H16.8V17.05H19.2ZM19.2 6.25H16.8V2.65C16.8 1.3264 17.877 0.25 19.2 0.25H28.8C30.123 0.25 31.2 1.3264 31.2 2.65V6.25H28.8V2.65H19.2V6.25Z" fill="#676B7E"/>
</svg>
